<?xml version="1.0" encoding="iso-8859-1"?>
<!-- Generator: Adobe Illustrator 19.0.0, SVG Export Plug-In . SVG Version: 6.00 Build 0)  -->
<svg xmlns="http://www.w3.org/2000/svg" xmlns:xlink="http://www.w3.org/1999/xlink" version="1.1" id="Capa_1" x="0px" y="0px" viewBox="0 0 501 501" style="enable-background:new 0 0 501 501;" xml:space="preserve" width="512" height="512">
<g>
	<path style="fill:#FFB23C;" d="M56.945,406.204C24.707,364.72,5.5,312.606,5.5,256c0-135.31,109.69-245,245-245s245,109.69,245,245   c0,56.606-19.207,108.72-51.445,150.204C384.746,393.208,319.293,386,250.5,386S116.254,393.208,56.945,406.204z"/>
	<path style="fill:#015D96;" d="M446.5,85v45v195v78.014c-12.159,16.185-26.277,30.815-42,43.539   c-42.077,34.05-267.629,33.395-310.002-1.637C79.577,432.58,66.141,418.51,54.5,403.014V325V130V85c0-8.284,6.716-15,15-15h362   C439.784,70,446.5,76.716,446.5,85z"/>
	<path style="fill:#014C7E;" d="M82.5,434.317c-10.196-9.61-19.569-20.082-28-31.303V325V130V85c0-8.284,6.716-15,15-15h28   c-8.284,0-15,6.716-15,15v45v234V434.317z"/>
	<path style="fill:#FFE2BD;" d="M406.5,120v324.921C364.126,479.95,309.772,501,250.5,501s-113.626-21.05-156-56.079V120   c0-5.523,4.477-10,10-10h292C402.023,110,406.5,114.477,406.5,120z"/>
	<path style="fill:#5EA1DF;" d="M336.5,60h-172c-5.523,0-10,4.477-10,10v40c0,5.523,4.477,10,10,10v30c0,11.046,8.954,20,20,20h132   c11.046,0,20-8.954,20-20v-30c5.523,0,10-4.477,10-10V70C346.5,64.477,342.023,60,336.5,60z M316.5,140c0,5.523-4.477,10-10,10   h-112c-5.523,0-10-4.477-10-10v-20h132V140z"/>
	<path style="fill:#FFAD8A;" d="M154.5,343.918v-10c0-2.761,2.239-5,5-5h85c2.761,0,5,2.239,5,5v10c0,2.761-2.239,5-5,5h-85   C156.739,348.918,154.5,346.679,154.5,343.918z M272.357,380H159.5c-2.761,0-5,2.239-5,5v10c0,2.761,2.239,5,5,5h112.857   c2.761,0,5-2.239,5-5v-10C277.357,382.239,275.119,380,272.357,380z M244.5,415h-85c-2.761,0-5,2.239-5,5v10c0,2.761,2.239,5,5,5   h85c2.761,0,5-2.239,5-5v-10C249.5,417.239,247.261,415,244.5,415z M159.5,255h85c2.761,0,5-2.239,5-5v-10c0-2.761-2.239-5-5-5h-85   c-2.761,0-5,2.239-5,5v10C154.5,252.761,156.739,255,159.5,255z M369.689,293.918h-50c-5.523,0-10,4.477-10,10v50   c0,5.523,4.477,10,10,10h50c5.523,0,10-4.477,10-10v-50C379.689,298.395,375.212,293.918,369.689,293.918z M369.689,200h-50   c-5.523,0-10,4.477-10,10v50c0,5.523,4.477,10,10,10h50c5.523,0,10-4.477,10-10v-50C379.689,204.477,375.212,200,369.689,200z    M369.689,380h-50c-5.523,0-10,4.477-10,10v50c0,5.523,4.477,10,10,10h50c5.523,0,10-4.477,10-10v-50   C379.689,384.477,375.212,380,369.689,380z M272.357,200H159.5c-2.761,0-5,2.239-5,5v10c0,2.761,2.239,5,5,5h112.857   c2.761,0,5-2.239,5-5v-10C277.357,202.239,275.119,200,272.357,200z M272.357,293.918H159.5c-2.761,0-5,2.239-5,5v10   c0,2.761,2.239,5,5,5h112.857c2.761,0,5-2.239,5-5v-10C277.357,296.157,275.119,293.918,272.357,293.918z"/>
	<path style="fill:#FF5526;" d="M129.5,220h-10c-2.761,0-5-2.239-5-5v-10c0-2.761,2.239-5,5-5h10c2.761,0,5,2.239,5,5v10   C134.5,217.761,132.261,220,129.5,220z M134.5,308.918v-10c0-2.761-2.239-5-5-5h-10c-2.761,0-5,2.239-5,5v10c0,2.761,2.239,5,5,5   h10C132.261,313.918,134.5,311.679,134.5,308.918z M134.5,395v-10c0-2.761-2.239-5-5-5h-10c-2.761,0-5,2.239-5,5v10   c0,2.761,2.239,5,5,5h10C132.261,400,134.5,397.761,134.5,395z M415.98,193.086l-5.627-5.627c-1.836-1.837-4.814-1.837-6.651,0   l-50.036,50.036l-20.32-20.32c-1.837-1.837-4.814-1.837-6.651,0l-5.627,5.627c-1.837,1.837-1.837,4.814,0,6.651l29.173,29.173   c0.944,0.944,2.189,1.399,3.426,1.373c1.237,0.026,2.482-0.429,3.425-1.373l58.889-58.889   C417.816,197.901,417.816,194.923,415.98,193.086z M415.98,287.004l-5.627-5.627c-1.836-1.837-4.814-1.837-6.651,0l-50.036,50.036   l-20.32-20.32c-1.837-1.837-4.814-1.837-6.651,0l-5.627,5.627c-1.837,1.837-1.837,4.814,0,6.651l29.173,29.173   c0.944,0.944,2.189,1.399,3.426,1.373c1.237,0.026,2.482-0.429,3.425-1.373l58.889-58.889   C417.816,291.819,417.816,288.841,415.98,287.004z"/>
	<path style="fill:#81B6E8;" d="M346.5,70v40c0,5.523-4.477,10-10,10h-152c-5.523,0-10-4.477-10-10v0c0-5.523,4.477-10,10-10h130   c5.743,0,10.355-4.841,9.978-10.665C324.134,84.019,319.484,80,314.158,80H184.5c-5.523,0-10-4.477-10-10v0c0-5.523,4.477-10,10-10   h36V30c0-16.848,13.889-30.453,30.843-29.988C267.683,0.46,280.5,14.277,280.5,30.624V60h56C342.023,60,346.5,64.477,346.5,70z"/>
	<path style="fill:#5EA1DF;" d="M265.5,35c0,8.284-6.716,15-15,15s-15-6.716-15-15s6.716-15,15-15S265.5,26.716,265.5,35z"/>
</g>















</svg>
